<?xml version="1.0" encoding="utf-8"?>
<!-- Generator: Adobe Illustrator 26.4.1, SVG Export Plug-In . SVG Version: 6.00 Build 0)  -->
<svg version="1.1" id="Layer_1" xmlns="http://www.w3.org/2000/svg" xmlns:xlink="http://www.w3.org/1999/xlink" x="0px" y="0px"
	 viewBox="0 0 16 16" style="enable-background:new 0 0 16 16;" xml:space="preserve">
<style type="text/css">
	.st0{fill-rule:evenodd;clip-rule:evenodd;fill:#EEF7EA;}
</style>
<path class="st0" d="M15,8c0-0.3-0.2-0.5-0.5-0.5H2.7l3.1-3.1C6,4.2,6,3.8,5.9,3.6c-0.2-0.2-0.5-0.2-0.7,0l-4,4C1,7.8,1,8.2,1.1,8.4
	c0,0,0,0,0,0l4,4c0.2,0.2,0.5,0.2,0.7,0s0.2-0.5,0-0.7L2.7,8.5h11.8C14.8,8.5,15,8.3,15,8z"/>
</svg>
