<?xml version="1.0" encoding="UTF-8"?><svg id="Layer_2" xmlns="http://www.w3.org/2000/svg" viewBox="0 0 342.5 487.82"><g id="Layer_1-2"><path d="M100.4,386.07c-8.34-.48-16.18-.95-24.02-1.37-7.15-.38-9.57-4.68-6.16-11.01,.43-.8,.85-1.62,.5-2.91-2.39,3.01-4.78,6.02-7.68,9.66-8.63-.51-16.3-5.46-21.63-13.1-4.87-6.97-8.27-14.96-12.31-22.5-.08-.15-.11-.33-.22-.45-8.18-9.02-.87-16.57,3.21-23.44,6.34-10.68,16.06-17.59,29.07-18.37,6.21-.37,12.75-1.62,18.58-.18,5.88,1.46,10.96,5.94,16.55,8.77,9.24,4.67,18.6,9.11,27.96,13.55,.93,.44,2.63,.71,3.23,.19,4.52-3.91,7.06-1.69,9.03,3.16,2.79-2.39,5.16-3.28,7.62,.3,.54,.78,3.96,.05,5.81-.65,3.59-1.36,6.8-2.3,8.66,2.32,1.7-.49,3.12-.9,6.24-1.8-6.61-4.59-12.1-8.75-17.96-12.31-3.07-1.86-6.94-2.37-10.16-4.06-1.65-.87-2.65-2.99-3.94-4.54,1.78-.26,3.78-1.19,5.31-.69,11.88,3.86,22.24,10.26,31.19,19.05,1.33,1.3,3.82,2.02,5.75,1.98,4.58-.09,6.64,2.35,7.5,6.62,6.4-5.03,12.49-9.81,18.94-14.87-4.99-6.92-10.35-12.05-19.08-10.71-2.56,.39-4.96,2.16-7.3,3.53-1.26,.74-2.09,2.25-3.38,2.86-.79,.38-2.42,.07-3.04-.56-.52-.52-.49-2.14-.07-2.95,5.01-9.99,24.07-13.52,30.38-3.24,1.24,2.02,3.03,3.86,4.95,5.27,1.02,.74,3.37,1.05,4.24,.39,10-7.51,21.7-11.33,33.16-15.67,3.13-1.19,6.41-1.91,9.92,2.57-14.68,5.15-29.5,8.81-41.15,18.89,8.2,14.12,14.88,28.96,16.14,46.31,1.94,0,4.04-.22,6.06,.08,1.26,.19,2.4,1.17,3.59,1.79-.74,1.08-1.25,2.69-2.27,3.12-2.37,1-4.97,1.42-7.49,2.08,.15,10.35-.66,20.64-6.78,30.94-2.91-4.53-1.81-8.33-1.32-12.06,.68-5.07,1.51-10.13,1.79-15.22,.05-.91-2.31-2.9-3.4-2.79-7.23,.74-14.44,1.79-21.59,3.11-.93,.17-2.03,2.41-2.1,3.75-.25,4.47-.07,8.96-.06,13.44,.04,8.75-5,14.89-11.59,19.22-2.78,1.83-7.77,1.33-11.46,.53-8.71-1.88-15.28-13.34-12.92-21.53,.17-.58,.72-1.05,1.73-2.45,.95,2.14,1.93,3.6,2.23,5.18,1.02,5.42,4.04,9.2,8.49,12.36,3.06,2.18,5.75,2.39,8.74,.58,4.57-2.77,8.2-6.41,8.69-12.03,.52-5.89,.64-11.82,.96-18.45-7.58,1.75-14.54,4.42-21.58,4.68-6.46,.24-13.88,4.67-21.07-2.8,14.46-2.28,27.7-4.37,42.55-6.71-2.43-8.63-4.52-16.06-6.96-24.74-4.24,4.54-7.27,8.1-10.63,11.32-7.5,7.21-16.29,12.45-26.28,15.24-9.62,2.7-19.56,4.29-29.12,7.17-3.12,.94-5.68,4.2-8.13,6.74-3.37,3.49-6.4,7.32-10,11.5,2.38,.99,3.7,1.55,4.83,2.02,.58-.28,.95-.35,1.14-.58,2-2.4,3.93-4.86,5.96-7.24,2.04-2.4,3.95-4.99,6.34-6.98,1.34-1.11,4-2.11,5.28-1.5,2.58,1.23,1.77,3.14-.18,5.08-4.17,4.16-8.13,8.55-11.9,13.07-.75,.9-.84,3.15-.25,4.23,4.35,7.95,1.92,16.97-6.08,22.16-8.66,5.63-17.74,5.13-26.5,1.01-11.11-5.22-12.31-8.99-7.53-20.43,1.52-3.64,3.67-7.08,5.93-10.34,4.53-6.54,7.97-7.19,15.26-3.69,1.11,.53,3.39,.68,3.92,.02,2.84-3.5,5.29-7.31,7.84-10.96Zm104.53-63.08c-1.76,1.57-3.05,2.54-4.12,3.7-4.02,4.37-7.28,9.91-12.13,12.9-5.07,3.14-4.37,5.69-2.7,9.99,2.18,5.62,4.22,11.42,5.25,17.33,.75,4.33,3.03,4.77,6.17,4.28,6.13-.96,12.2-3,18.33-3.14,5.65-.13,5.18-3.28,4.38-6.44-1.76-7.03-3.63-14.08-6.25-20.82-2.31-5.93-5.69-11.44-8.94-17.79Zm-121.75,78.62c.01-.57,.02-1.14,.03-1.7-1.81,1.04-4.37,1.63-5.29,3.19-2.73,4.65-5.12,9.56-6.98,14.61-.59,1.61,.31,4.43,1.5,5.91,3.55,4.4,18.05,6.94,23.33,4.5,6.93-3.2,10.42-13.45,5.31-18.67-3.08-3.15-8.66-3.83-13.1-5.66-1.62-.67-3.2-1.45-4.8-2.18Zm24.02-28.71c4.91-5.33,9.26-10.04,13.6-14.75-.28-.3-.55-.61-.83-.91-3.62,3.37-7.09,6.92-10.9,10.07-4.17,3.45-6.67,9.8-14.08,8.6-.15-1.55-.29-2.91-.42-4.27-.5-.41-1-.82-1.5-1.23-2.15,2.58-4.31,5.16-6.46,7.74,.22,.65,.44,1.31,.66,1.96,8.3-.9,16.6-1.81,24.9-2.71-.05-.46-.09-.93-.14-1.39-1.47-.95-2.94-1.89-4.83-3.1Zm40.67-5.93c-.52-2.54-.94-4.56-1.44-7-4.2,3.47-8.25,6.81-12.29,10.15,.24,.41,.48,.81,.72,1.22,4.39-1.47,8.79-2.95,13.02-4.37Zm-48.75-46.6c-.21-.66-.41-1.33-.62-1.99-1.57,.54-3.68,.61-4.62,1.7-2.9,3.38-5.4,7.12-7.97,10.78-.52,.74-.68,1.73-.49,1.22,4.03-3.45,8.86-7.58,13.69-11.71Zm-3.14,14.37l.62,.47c4.12-3.2,8.24-6.4,12.79-9.93-1.7-.94-2.94-1.62-4.16-2.29-3.21,4.09-6.23,7.92-9.25,11.75Zm-6.43-21c-5.36-1.29-7.26,.54-13.13,11.91,4.2-3.81,8.4-7.62,13.13-11.91Zm35.17,52.43c-3.37,3.32-5.98,5.9-8.59,8.48l1.03,1.14c2.65-.98,5.29-1.96,8.22-3.05-.18-1.77-.36-3.63-.66-6.57Zm-14.26-29.96c.38,.57,.76,1.15,1.15,1.72,2.57-2.48,5.14-4.96,8.59-8.31-5.68,.32-7.78,3.36-9.74,6.59Z"/><path d="M269.27,108.91c1.92,5.36,3.98,10.68,5.73,16.1,3.89,12.06,7.56,24.19,11.43,36.25,1.67,5.19,3.72,10.25,5.39,15.43,.95,2.94,1.63,5.99,2.14,9.04,.64,3.84,1.29,7.72,1.37,11.6,.06,3.06-.55,6.3-5.16,5.22-.73-.17-1.68-.02-2.36,.31-13.83,6.61-28.54,10.74-43.02,15.58-10.96,3.66-21.52,8.53-32.22,12.95-6.51,2.69-12.83,5.85-19.42,8.31-13.78,5.15-28.08,9.09-41.38,15.22-9.65,4.45-19.83,3.77-29.45,4.87-17.57,2.01-35.58,.59-53.37-.24-2.62-.12-5.92-4.45-7.38-7.55-5-10.62-9.5-21.49-13.86-32.39-4.36-10.9-8.19-22.02-12.52-32.93-3.97-10-8.09-19.94-12.51-29.74-4.28-9.49-5.81-18.85-2.63-29.15,5.37-17.36,10.93-34.75,14.69-52.49,3.62-17.09,14.1-27.87,27.27-37.79,10.51-7.91,22.35-11.42,34.55-15.13,17.76-5.41,35.9-8.53,54.13-11.56,14.41-2.4,28.65-5.83,43.08-8.02C204.71,1.14,215.82,.12,226.87,0c5.85-.06,10.64,4.4,12.88,9.79,5.6,13.42,11.2,26.9,15.62,40.73,4.04,12.62,6.51,25.74,9.71,38.64,1.62,6.52,3.3,13.02,4.95,19.54-.25,.07-.51,.14-.76,.22ZM135.43,250.99c.12,.3,.25,.61,.37,.91,1.16-.07,2.38,.07,3.47-.25,8.3-2.45,16.78-4.46,24.81-7.6,17.19-6.72,34.11-14.16,51.23-21.07,9.73-3.93,19.61-7.53,29.51-11.03,4.42-1.56,9.16-2.22,13.58-3.78,9.17-3.25,18.25-6.78,27.3-10.37,1.23-.49,3.04-2.17,2.89-3-1.03-5.99-2.32-11.95-3.87-17.83-1.19-4.55-3.06-8.91-4.3-13.45-1.99-7.32-3.31-14.84-5.65-22.04-2.97-9.13-7.1-17.88-9.94-27.04-3.17-10.24-5.55-20.73-8.08-31.16-3.03-12.45-5.79-24.96-8.82-37.41-.81-3.35-2.11-6.59-3.24-9.86-3.25-9.39-6.1-19.01-12.56-26.84-1.57-1.91-4.08-3.93-6.35-4.18-4.52-.51-9.26-.35-13.74,.47-9.02,1.65-17.87,4.24-26.9,5.86-8.18,1.46-16.56,1.86-24.76,3.23-12.32,2.06-24.61,4.39-36.84,6.95-8.91,1.87-17.68,4.34-26.54,6.46-16.66,3.99-32.47,9.73-44.01,23.23-5.29,6.18-11.77,11.78-12.27,20.94-.19,3.44-.99,6.91-1.98,10.23-3.42,11.46-7.14,22.82-10.56,34.28-1.33,4.46-1.52,9.37-3.46,13.5-2.58,5.48-2.14,10.68-.61,16.01,1.26,4.42,2.74,8.81,4.52,13.05,5.4,12.85,11.14,25.57,16.47,38.45,5.28,12.76,10.2,25.66,15.34,38.48,1.78,4.44,3.29,9.07,5.75,13.11,1.41,2.32,4.22,4.32,6.84,5.24,3.49,1.23,7.41,1.82,11.13,1.74,12.36-.28,24.72-.95,37.08-1.54,2.62-.13,5.29-.29,7.81-.93,2.22-.56,4.26-1.81,6.39-2.76Z"/><path d="M277.75,292.81c5.15,.37,10.47-.17,15.15,1.31,8.1,2.56,15.81,6.37,23.68,9.67,.76,.32,1.47,1.08,2.21,1.09,5.81,.06,9.2,3.71,11.51,8.28,3.84,7.61,8.24,15.17,10.51,23.28,2.51,8.99,2.46,18.53-1.75,27.46-2.2,4.66-9.73,8.5-14.75,9.3-8.85,1.4-16.47-2.63-24.65-4.16-3.53-.66-7.19-.62-10.71-1.34-1.38-.28-2.5-1.79-3.74-2.74,1.6-.79,3.31-2.42,4.77-2.22,9.46,1.3,18.89,2.87,28.28,4.61,7.7,1.42,13.8-1.36,16.38-8.51,2.56-7.1,3.22-14.39,.18-21.64-2.81-6.69-5.21-13.59-8.5-20.04-1.13-2.22-4.34-3.42-6.68-4.95-3.07-2.01-6.07-4.21-9.37-5.74-4.63-2.15-9.38-4.51-14.33-5.4-6.62-1.18-13.46-1.17-20.22-1.4-2.94-.1-4.39,1.64-4.4,4.78-.04,8.34-.27,16.69-.42,25.03-.03,1.73,0,3.47,0,3.94,3.22,1.98,5.69,3.95,8.51,5.07,1.98,.79,4.42,.42,6.61,.57,.56-6.37,1.46-11.75,1.23-17.09-.07-1.7-3.22-3.22-4.87-4.91-1.22-1.25-2.29-2.63-4.13-4.78,11.31,.2,14.9,4.44,13.83,13.79-.42,3.71,.26,7.54-.02,11.29-.13,1.69-1.06,3.61-2.23,4.85-1.19,1.27-3.12,1.84-5.01,2.86,.15,2.78,1.09,5.91,.25,8.47-1.15,3.54-2.98,7.37-5.67,9.78-7.4,6.61-16.65,6.47-25.97,5.82-4.32-.3-8.33,.01-11.78-3.63-6.15-6.48-4.14-13.4-1.95-20.46,.38-1.22,1.18-2.31,2.06-3.97-1.89-.09-3.28-.2-4.68-.21-8.22-.03-12.47-5.1-11.06-13.19,.2-1.14,.53-2.33,.39-3.45-1.35-10.99,1.66-9.5,8.73-12.54,1.13-.49,2.89,.47,4.36,.76-.7,1.48-1.07,3.31-2.18,4.35-1.64,1.53-5.16,2.23-5.47,3.77-.76,3.81-.33,7.92,.03,11.87,.08,.88,1.78,2.23,2.81,2.3,6.54,.44,13.1,.59,19.82,.84,.46-3.59,.75-5.81,1.14-8.84-6.23,.89-13.47,2.53-13.6-6.51-.1-6.82,4.08-9.36,13.14-9.51-.25-3.69,.15-7.59-.97-11-.78-2.4-3.67-4.08-5.53-6.16-2.02-2.26-5.47-4.5-5.64-6.92-.51-7.62-2.42-15.71,2.2-22.75,1.75-2.67,4.33-5.27,7.14-6.68,7.24-3.62,19.52-3.79,25.96,3.92,1.23,1.47,1.15,4.15,1.37,6.3,.63,6.03,1.48,12.09,1.46,18.13,0,2.34-2.12,4.67-3.4,7.26Zm-19.28,46.5c-9.92,.34-14.9,4.64-16.18,14.34-.63,4.81,2.83,9.75,7.37,10.31,2.96,.36,6.04,1.09,8.89,.62,5.63-.93,11.43-1.9,16.6-4.13,4.99-2.15,5.35-7.76,4.13-12.19-.69-2.49-4.04-5.01-6.74-6-4.45-1.63-9.36-2.03-14.07-2.95Zm16.3-52.01c.37-2.78,.58-5.6,1.15-8.34,1.14-5.53-1.63-14.65-5.4-17.21-3.52-2.38-13.09-1.71-17.45,1.39-1.71,1.22-4.24,2.62-4.53,4.27-.89,5.16-1.48,10.52-1.02,15.7,.27,3.01,1.51,6.96,6.5,7.2-.7-6.57,.97-12.73,7.53-14.28,8.23-1.94,9.5,6.13,13.21,11.28Zm-11.9-7.21c-1.22,2.14-2.82,3.67-2.85,5.23-.13,6.09,.25,12.2,.41,18.3,.28,10.42,.53,20.84,.79,31.27,.48,.16,.96,.33,1.43,.49,.93-.86,2.56-1.64,2.67-2.59,.37-3.39,.19-6.85,.28-10.27,.24-8.42,.71-16.84,.72-25.27,0-5.43,2.27-11.33-3.46-17.15Zm-7.24,37.76c-3.53-2.6-5.74-2.4-7.14,.26-.44,.83,.47,2.37,.77,3.58,1.94-1.17,3.87-2.34,6.37-3.84Z"/><path d="M155.98,471.43c8.78-2.72,17.56-5.48,26.36-8.15,2.67-.81,5.48-2.09,8.09-1.82,1.66,.17,3.06,2.8,5.19,4.96,5.73-1.62,12.86-3.52,19.91-5.68,3.56-1.09,6.91-2.48,7.76,2.83,8.16-.2,15.64-4.64,24.14-2.38-1.55,7.09-9.26,4.81-11.8,9.68,4.38-1.57,8.67-3.4,13.12-4.61,6.12-1.67,12.33-3.04,18.57-4.15,1.36-.24,3,1.16,4.52,1.81-.97,1.45-1.65,3.38-3,4.22-1.92,1.19-4.37,1.47-6.52,2.34-.82,.33-1.42,1.22-1.99,1.74,6.05-.52,12.03-1.13,18.03-1.44,.94-.05,1.94,1.24,2.92,1.91-.92,.77-1.74,2-2.79,2.23-8.54,1.95-17.16,3.57-25.69,5.6-3.48,.83-6.73,2.59-10.19,3.58-2.16,.62-4.59,1.01-6.75,.63-1.13-.2-2.93-2.62-2.66-3.43,.54-1.59,2.33-2.75,4.63-5.17-4.2,.96-7.41,1.57-10.56,2.44-6.67,1.84-13.26,3.99-19.98,5.6-1.66,.4-3.7-.78-5.56-1.23,.73-1.92,1.46-3.84,2.25-5.91-1.46,.4-3.67,.95-5.85,1.61-4.12,1.24-8.23,2.53-12.33,3.83-3.82,1.21-6.28,.47-5.84-5.16-5.83,2.23-10.97,4.43-16.27,6.13-3.37,1.08-6.96,1.63-10.5,1.93-1.06,.09-2.25-1.51-3.39-2.33,1.06-1.14,1.97-2.52,3.23-3.36,1.3-.87,2.95-1.21,4.06-2.81-8.04,3.17-16.09,6.34-24.13,9.53-1.23,.49-2.5,1.56-3.64,1.42-1.6-.2-3.6-.92-4.42-2.12-.5-.73,.5-3.22,1.53-4.1,1.58-1.35,3.76-2,5.68-2.95,1.37-.67,2.73-1.35,4.1-2.03-.17-.46-.34-.93-.51-1.39-5.75,1.59-11.48,3.31-17.29,4.66-1.42,.33-3.13-.6-4.7-.95,1.18-1.31,2.12-3.32,3.58-3.83,11.43-4.03,22.95-7.78,34.45-11.58,.94-.31,2.06-.77,2.9-.51,2.06,.62,4,1.62,5.98,2.47-1.28,1.31-2.54,2.63-3.84,3.92-.34,.34-.76,.59-1.14,.88l.31,1.16Z"/><path d="M335.74,163.02c.36,3.76,.91,7.52,.97,11.29,.02,1.11-1.32,2.25-2.04,3.38-1.06-1-2.96-1.92-3.06-3.02-1.04-11.19-1.82-22.4-2.54-33.61-.04-.63,1.04-1.34,1.61-2.01,1.26,1.06,3.47,1.99,3.64,3.21,.96,6.86,1.42,13.79,2.06,20.7-.21,.02-.42,.04-.63,.06Z"/><path d="M319.62,169.61c.64,6.65,1.49,13.29,1.79,19.96,.09,2-1.36,4.07-2.11,6.11-1.4-1.7-3.28-3.21-4.06-5.17-.83-2.06-.75-4.53-.81-6.82-.17-6.76-.29-13.51-.24-20.27,.01-1.4,.65-2.91,1.38-4.15,.41-.7,1.67-1.42,2.38-1.28,.68,.13,1.53,1.32,1.63,2.13,.38,3.13,.5,6.29,.71,9.44l-.66,.07Z"/><path d="M0,56.67c1.2-2.99,1.95-5.72,3.33-8.1,3.71-6.4,7.6-12.71,11.65-18.9,.54-.83,2.43-.78,3.69-1.14-.04,1.36,.34,2.92-.2,4.05-3.45,7.29-7.07,14.49-10.69,21.7-.74,1.47-1.48,3.03-2.61,4.18-.78,.79-2.44,1.54-3.28,1.21-.9-.36-1.31-1.99-1.89-2.99Z"/><path d="M209.35,424.85c-1.29,3.2-1.78,7.25-4.05,9.41-4.94,4.7-10.7,8.56-16.33,12.48-1.35,.94-3.51,1.03-5.27,.94-.86-.04-1.95-1.27-2.36-2.21-.23-.53,.56-2.09,1.19-2.31,10.09-3.47,17.02-10.97,23.94-18.51,.28-.31,.87-.34,1.31-.5,.52,.23,1.04,.46,1.56,.69Z"/><path d="M20.79,54.51c-.78-1.26-2.39-2.85-2.08-3.5,1.43-2.96,3.34-5.7,5.21-8.44,3.32-4.88,6.65-9.75,10.16-14.49,.77-1.04,2.27-1.71,3.57-2.09,.43-.13,1.96,1.4,1.83,1.77-.81,2.39-1.71,4.83-3.04,6.96-2.09,3.38-4.55,6.52-6.84,9.78-1.98,2.82-3.89,5.7-5.94,8.47-.43,.58-1.37,.77-2.87,1.54Z"/><path d="M199.01,293.74c-.87,1.08-1.54,2.67-2.44,2.82-.95,.16-2.75-.82-3.1-1.72-1.73-4.47-5.08-5.52-9.18-4.5-1.89,.47-3.42,2.22-5.29,2.93-1.57,.59-3.39,.5-5.1,.71,.63-1.52,.85-3.54,1.97-4.49,7.42-6.26,15.87-6.14,20.72,.09,.89,1.14,1.49,2.51,2.44,4.17Z"/><path d="M200.05,414.88c.07,4.33-8.33,14.17-12.23,14.28-1.38,.04-2.81-1.62-4.22-2.5,.77-.99,1.45-2.07,2.33-2.95,3.12-3.1,6.26-6.18,9.51-9.14,.85-.78,2.11-1.35,3.24-1.47,.46-.05,1.07,1.36,1.36,1.77Z"/><path d="M81,413.32c3.8,1.49,7.19,2.45,10.15,4.16,1.15,.66,1.32,3.01,1.94,4.6-1.49,0-3.09,.36-4.44-.07-2.96-.93-5.89-2.07-8.64-3.5-1.03-.53-1.51-2.11-2.23-3.22,1.15-.7,2.3-1.4,3.23-1.97Z"/><path d="M122.74,147.2c.95-3.28,1.37-4.76,1.8-6.24-.43,.15-.87,.31-1.3,.46-1.01-2.41-2.3-4.75-2.99-7.25-2.01-7.26-3.71-14.61-5.66-21.88-2-7.47-4.14-14.9-6.26-22.34-2.67-9.38-5.42-18.74-8.05-28.14-1.09-3.91-1.95-7.88-3.01-12.17,4.19-1.26,8.54-2.7,12.97-3.87,8.65-2.28,17.35-4.4,26.02-6.59,13.63-3.43,27.28-6.81,40.9-10.29,11.95-3.05,23.88-6.17,35.8-9.33,4.63-1.22,7.88-.13,11.3,3.69,8.79,9.83,13.73,21.62,17.71,33.73,3.38,10.28,5.58,21.01,7.5,31.69,1.21,6.72,1.26,13.7,1.23,20.56-.03,5.69-2.96,7.86-8.71,8.96-10.26,1.96-20.46,4.25-30.65,6.57-12.52,2.85-25.06,5.66-37.48,8.9-7.13,1.86-13.98,4.73-21.07,6.78-5.29,1.53-10.75,2.48-16.14,3.68-4.2,.93-8.41,1.85-13.91,3.05Zm5.26-6.66c11.58-3.4,23.15-6.85,34.76-10.18,3.45-.99,7.04-1.47,10.47-2.5,4.53-1.36,8.88-3.4,13.46-4.52,10.98-2.68,22.04-5.11,33.11-7.42,6.38-1.33,12.84-2.28,19.28-3.31,3.91-.62,6.81-3.64,6.45-6.92-.7-6.31-.91-12.73-2.19-18.92-2.05-9.88-4.05-19.89-7.47-29.34-3.46-9.57-8.35-18.66-13.21-27.64-1.22-2.26-4.98-4.88-7.18-4.57-10.54,1.51-21.06,3.53-31.37,6.19-16.34,4.21-32.5,9.17-48.78,13.63-8.9,2.44-17.85,4.71-26.86,6.68-4.71,1.03-5.39,1.7-3.86,6.44,1.12,3.46,2.22,6.93,3.16,10.44,4.11,15.44,8.02,30.94,12.28,46.34,2.36,8.54,5.25,16.93,7.97,25.6Z"/><path d="M66.22,44.74c1.74,4.85,3.66,9.64,5.18,14.56,4.33,14.04,8.62,28.09,12.68,42.2,2.64,9.15,4.51,18.53,7.35,27.62,3.64,11.64,8.14,23.01,11.82,34.64,2.76,8.73,4.77,17.7,7.2,26.54,.99,3.6,2.3,7.11,3.32,10.71,3.03,10.69,6.05,21.39,8.89,32.13,.4,1.52-.2,3.31-.34,4.98-1.6-.38-4.36-.37-4.63-1.2-2.17-6.5-3.84-13.17-5.72-19.78-4.01-14.06-9.27-27.92-11.58-42.25-1.09-6.77-5.37-11.56-6.44-17.97-1.05-6.3-3.46-12.37-5.26-18.54-3.92-13.48-7.86-26.96-11.72-40.46-4.46-15.58-8.89-31.17-13.18-46.79-.51-1.86-.07-3.99-.07-5.99,.83-.13,1.67-.26,2.5-.39Z"/><path d="M184.95,163.87c1.51,4,2.76,7.31,3.91,10.35,12.12-3.38,23.67-6.46,35.12-9.85,8.17-2.41,16.2-5.26,24.32-7.84,1.39-.44,3.08-1.04,4.3-.61,1.8,.63,3.31,2.11,4.95,3.23-1.43,.95-2.74,2.34-4.31,2.79-8.45,2.44-16.98,4.56-25.44,6.95-12.58,3.56-25.08,7.43-37.74,10.69-1.58,.41-4.83-1.62-5.72-3.34-2.18-4.17-3.79-8.75-4.78-13.34-.24-1.12,2.51-3.67,4.34-4.33,6.21-2.25,12.62-3.98,18.97-5.84,5.87-1.71,11.81-3.18,17.64-5.03,10.92-3.46,21.72-7.34,32.73-10.48,2.08-.59,6.33,.76,7.13,2.4,2.41,4.96,3.71,10.47,5.16,15.85,.19,.71-1.31,2.69-1.97,2.66-1.39-.06-3.5-.73-3.96-1.75-.91-2.05-.85-4.51-1.3-6.78-1.05-5.37-3.85-7.08-8.67-5.53-17.31,5.56-34.61,11.12-51.95,16.58-3.97,1.25-8.08,2.05-12.73,3.21Z"/><path d="M156.56,184.42c.38,6.71-2.82,10.6-9.01,10.95-6.8,.38-13.8-4.55-14.06-9.92-.36-7.27,3.28-12.82,8.91-12.62,7.47,.26,14.45,2.52,14.16,11.59Zm-6.62,4.53c1.51-4.91,.38-8.91-3.96-11.18-1.23-.64-4.74,.34-5.1,1.34-.88,2.42-1.52,5.82-.44,7.87,2.05,3.91,6.07,2.95,9.51,1.96Z"/><path d="M263.58,350.82c2.75,1.41,6.66,2.57,6.61,3.53-.22,4.1-4.11,3.18-6.9,3.73-2.84,.56-5.62,1.46-8.47,1.93-1.19,.2-2.51-.33-3.77-.52,.41-1.27,.44-3.23,1.29-3.68,3.51-1.87,7.27-3.28,11.24-4.99Z"/><path d="M157.28,91.95c-2.88-1.66-4.31-2.81-5.94-3.38-10.48-3.71-13.24-12.83-14.68-22.2-.31-2.02,3.56-5.18,6.07-7.06,7.41-5.55,15.07-10.78,22.72-16,.94-.64,2.54-.92,3.65-.64,8.86,2.26,17.73,4.51,26.46,7.2,1.98,.61,3.99,2.64,4.99,4.54,1.59,3.04,2.47,6.48,3.4,9.83,.31,1.13,.26,2.72-.32,3.68-2.14,3.52-4.57,6.86-7.07,10.53,1.04,.29,2.18,.73,3.36,.92,9.15,1.48,10.98,9.36,13.69,16.17,.61,1.52-.66,4.75-2.1,5.97-6.09,5.18-12.44,10.08-18.98,14.69-2.01,1.42-4.89,2.13-7.41,2.22-7.04,.25-14.1-.01-21.16-.04-.99,0-1.99,.15-2.99,.23-4.08,.31-7.38-.22-8.04-5.38-.37-2.91-1.18-5.96-2.58-8.5-3.01-5.44-.98-8.74,3.85-11.28,.75-.39,1.52-.74,3.09-1.5Zm.8,21.49c.44,0,1.4,.02,2.35,0,8.38-.2,16.71-3.31,25.18-.2,.92,.34,2.67-.97,3.78-1.84,4.43-3.47,8.56-7.36,13.18-10.53,4.78-3.29,6-7.17,2.83-11.84-1.14-1.68-3.58-2.82-5.66-3.48-7.92-2.51-15.87-4.99-23.95-6.91-3.03-.72-6.21-.09-7.06-4.26-.63-3.07-1.76-6.04-2.31-9.13-.24-1.35,.43-2.86,.68-4.3,1.5,1.03,3.81,1.75,4.36,3.15,3.34,8.6,9.48,12.94,18.47,12.44,.61-.03,1.44-.23,1.75-.65,2.26-3.04,5.1-5.92,6.35-9.36,.69-1.92-1.7-4.76-2.04-7.28-.57-4.17-3.2-5.17-6.78-5.82-5.71-1.03-11.31-2.74-17.04-3.64-2.34-.37-5.33-.06-7.26,1.14-5.43,3.39-10.49,7.38-15.64,11.2-2.64,1.96-6.6,3.65-7.36,6.23-.74,2.51,1.74,6.04,3.02,9.04,.67,1.56,1.5,3.77,2.79,4.24,7.1,2.59,14.35,4.8,21.58,7.01,6.82,2.09,14.59,2.98,15.36,12.4,.14,1.76-.54,3.58-.85,5.38-1.17-.91-2.39-1.76-3.49-2.76-.85-.78-1.88-1.62-2.23-2.64-1.59-4.63-5.74-5.34-9.51-7.13-4.99-2.38-7.56,.87-10.85,3.14-2.91,2.01-3.78,4.24-2.26,7.62,1.1,2.45,1.57,5.18,2.6,8.76Z"/></g></svg>