<?xml version="1.0" encoding="utf-8"?>
<!-- Generator: Adobe Illustrator 26.5.0, SVG Export Plug-In . SVG Version: 6.00 Build 0)  -->
<svg version="1.1" id="Layer_1" xmlns="http://www.w3.org/2000/svg" xmlns:xlink="http://www.w3.org/1999/xlink" x="0px" y="0px"
	 viewBox="0 0 586 585" style="enable-background:new 0 0 586 585;" xml:space="preserve">
<style type="text/css">
	.st0{fill:#16223D;}
	.st1{clip-path:url(#SVGID_00000175300039501443759270000007585917255999736986_);fill:#FDF6E8;}
</style>
<rect class="st0" width="585.5" height="584.9"/>
<g>
	<defs>
		<rect id="SVGID_1_" y="0.1" width="585.5" height="584.7"/>
	</defs>
	<clipPath id="SVGID_00000053531089495412367530000002243981465687478441_">
		<use xlink:href="#SVGID_1_"  style="overflow:visible;"/>
	</clipPath>
	<path style="clip-path:url(#SVGID_00000053531089495412367530000002243981465687478441_);fill:#FDF6E8;" d="M536.1,180.8
		c13.4-2,27.5-1.1,37.3,12.4c6.3,8.6,14.6,16.6,11.5,29.3c-4.3-7.1-8.4-14.1-12.6-20.9c-7.7-12.7-19-16.1-33.6-15.5
		c-19.5,0.7-31.9,10.6-41.3,26.1c-2.8,4.6-4.2,9.5,0,14.4c6.7-6.2,11.4-6.1,17.8,0.6c7.4,7.8,10.4,17.3,9.5,29.2
		c3.4-1.7,6.1-3,8.8-4.3c8.9-4.4,9.4-4.2,15,4.3c4.3-2.3,6-0.2,7.9,4.1c2.2,5,5.8,9.6,9.5,13.6c8.6,9.5,12.8,20.4,12.7,33.2
		c-0.1,20.9-0.1,41.9-0.3,62.8c0,5.7-1.2,6.5-6.2,4.1c-6.2-2.9-12.5-2.2-18.6,0.2c-5.5,2.2-10.9,5-16.1,7.9
		c-29.5,16.6-48.9-5.9-51.2-27.9c-0.4-4.1-0.6-8.3-0.9-12.6c-3.3-0.3-6.5-0.3-9.5-1c-6.6-1.4-7.8-3.8-5.4-10.2
		c2.8-7.5,0.3-12.1-7.4-14c-8.5-2-9.4-3.4-7.4-12c2.1-9.1,7.4-16.2,13.8-22.7c7-7.1,14.4-13.8,21.1-21.1c5.5-6,9.5-12.9,9-21.5
		c-0.1-1.9-1.2-4.3-2.6-5.4c-8.5-6.6-10.6-14.6-4.8-24c4.3-7.1,10-13.3,14.8-19.5c-0.9-3.6-2.1-7.2-2.7-10.9
		c-2.7-18.7-5.1-37.5-7.7-56.2c-0.3-2.1-0.9-4.2-1.5-6.9c-17.2,7-32.7,5.1-46.7-7.2c-4.7,8.9-4.8,17.7-0.9,26.6
		c3.3,7.5,6.9,14.8,10,22.3c5.3,13,5.5,26.2-0.6,38.9c-6.3,13.1-8.8,26.7-7.7,41.2c0.7,9.5-0.9,18.6-5.2,27.3
		c-2.5,5.2-3.8,10.4,0.6,15.6c1.1,1.4,1.5,4.5,0.8,6.2c-3.4,8.1-9.9,13.3-17.9,16.5c-1.1,0.4-3.4-0.9-4.5-2
		c-18.6-19.3-27.5-41.2-18.3-68.1c3.2-9.4,6.2-18.9,8.8-28.5c2.7-10,2-20.4-4.1-28.8c-14.8-20.5-14.6-42.3-9.2-65.6
		c4.8-20.7,10-41,22.5-58.7c1.9-2.7,2.9-6,4.6-9.7c-6.9,0-6.2-3.4-4.5-7.5c5.7-13.7,22.2-23.7,39.9-21.6c12.5,1.4,25,4.9,36.9,9.1
		c12.1,4.3,17.8,14.2,17.7,27.1c0,2,0.2,4,0,6c-1.7,13.8,1.9,26,10.1,37.1c1.8,2.4,3.1,5.1,4.7,7.7c5.4,9.2,6.5,18.8,2.1,28.6
		c-3.4,7.7-3.2,14.8-0.9,23C535.8,160.6,535.3,170.4,536.1,180.8L536.1,180.8z M431,46.9c-6.3,13.4-13.8,26.2-18.4,40
		c-4.8,14.4-7,29.8-9.9,44.8c-2.1,11,0,21.4,5.9,31c1.6,2.5,2.9,5.2,4.5,7.8c7.5,12.5,9.4,25.7,5.2,39.6c-2.9,9.7-6.4,19.3-9.1,29.1
		c-6.1,21.5,1.6,45.2,19.1,58.4c3.3-3.2,6.8-6.3,9.9-9.8c0.9-1,1.3-3.7,0.6-4.7c-5.1-6.8-2.5-13.4-0.4-20.4
		c2.2-7.7,4.8-15.8,4.6-23.7c-0.4-15.9,1.8-30.9,8.7-45.2c5.3-11.1,4.8-22.4,0.2-33.6c-2.8-6.8-5.8-13.5-9.1-20.1
		c-6.1-12.5-4.6-24.7,1.1-36.8c1.8-3.8,3.5-4.3,6.6-1.1c12.7,13.2,24.7,15.5,41.6,8.7c1.8-0.7,5.3,0.1,6.5,1.5
		c1.8,2.1,2.9,5.2,3.3,8.1c1.4,8.2,2.4,16.6,3.5,24.8c1.7,11.9,3.3,23.9,5,35.7c5.4-0.7,10.2-1.1,14.8-2.2c1.6-0.4,3.9-2.6,3.8-3.9
		c-0.1-7.5,0.5-15.3-1.6-22.3c-2.6-8.6-3-16.3,0.7-24.3c4.3-9.1,3.9-18.2-1.9-26.1c-11.7-16-17.1-33.2-15-53.2
		c1-9.8-4.2-17.9-13.6-21C486,24.1,474.1,20.4,462,19c-12.6-1.4-23.8,3.4-32.1,14.9c3,3.8,5.9,7.6,8.2,10.6c4.7-2.3,8-4.6,11.6-5.5
		c7-1.9,14.2-3.2,21.4-4.5c4.7-0.8,9.4-1.9,14.1-1.7c11.1,0.5,18.5,8.1,18.9,19.2c0.3,7.2,0.3,14.4-0.1,21.5
		c-0.4,8.8-1.1,17.5-2.1,26.2c-0.1,1.3-2,2.3-3.1,3.5c-0.9-1.2-2.3-2.2-2.6-3.5c-0.5-2.4-0.3-4.9-0.4-6.3
		c-6.2,4.6-11.9,9.9-18.6,13.4c-7.5,4-16.2,2-20.7-3.8c-1.7-2.1-2-5.3-2.9-8c2.4-0.2,4.7-0.4,7.1-0.7c0.2,0,0.4-0.6,0.8-1.2
		c-1.4-0.3-2.8-0.3-3.9-0.9c-1.8-1-3.3-2.3-5-3.5c1.3-1.4,2.5-2.7,3.8-4c2.8-2.7,5.6-5.3,7.8-7.4c-3.3-2.8-5.5-6.1-8.5-6.9
		c-4-1.1-5-3-3.9-6.3c1-3.1,2.5-5.9,6.9-4.7c1.4,0.4,3.1-0.6,4.6-0.9c0-0.4-0.1-0.8-0.2-1.2c-5.8-0.4-11.5-0.8-18-1.3
		c4.9,6.7,4.2,13.5,2.4,20.5c-1.2,4.9-2.1,9.7,1.3,14.3c0.6,0.8-0.3,2.7-0.6,4.1c-1.4-0.3-3.6-0.3-4.1-1.1c-1.5-2.9-3.3-6.1-3.4-9.2
		c-0.2-4.3,1-8.6,1.8-12.9C444.2,63.5,438.9,51.7,431,46.9L431,46.9z M459.7,308.3c0.5,0.9,1.1,1.7,1.6,2.6
		c8.6,0.8,17.2,1.9,25.9,2.2c4.1,0.2,5.9,1.2,5.6,5.5c-0.5,6.7-0.6,13.5-1,20.3c-0.7,11.3,0,22.4,6.7,32.1
		c7.2,10.4,17.5,13.6,29.3,9c4.6-1.8,9.1-4.1,13.4-6.5c9.6-5.3,19.5-8.9,30.9-6.1c0-23.1,0.2-45.7-0.2-68.4
		c-0.1-4.2-2.4-8.4-3.7-12.6c-1.6,2.1-1.9,3.8-2.4,5.5c-2.8,9.3-12.1,15.6-20.4,13.6c-2-0.5-4.7-2.8-5-4.6
		c-1.6-9.2-2.7-18.4-3.5-27.7c-0.5-5.3-0.1-10.7-0.1-16.1c-5.9,3-12.1,6.1-18.3,9.2c-0.7,0.4-1.6,0.6-2.1,1.1
		c-1.1,1.4-2.9,3.1-2.7,4.5c0.1,1.2,2.5,2.2,3.9,3.3c1.5,1.1,3,2.1,4.5,3.1c-1.8,1.2-3.5,3-5.5,3.5c-1.9,0.5-4.4-0.9-6.2-0.3
		c-4.5,1.5-6.3-1-7.8-4.3c-3.2-7.3,0.1-13.6,9.6-18.3c7.3-3.6,8.1-4.9,6.3-13c-1.7-8-5.3-14.7-13.8-18.8c0.3,3,0.4,4.8,0.6,6.7
		c2,16.2-6.3,27.7-17,38.3c-6.5,6.4-13.5,12.5-19.3,19.5C465,296.4,462.7,302.7,459.7,308.3L459.7,308.3z M475.8,58.7
		c12.7-4.5,16-8.1,22,8c0.5-3.6,0.5-7.2,0.5-10.8c-0.1-13-6.6-18.8-19.6-17.1c-3.1,0.4-6.1,1.8-9.2,2.4c-6,1.3-12,2.2-17.9,3.6
		c-2.2,0.5-4.2,1.6-7.8,3C455.5,53.4,468.9,46.8,475.8,58.7L475.8,58.7z M464,100.8c4.3,2.7,7.9,2.9,13.7-0.5
		c11.4-6.6,16.8-16.9,17.9-30.6c-8,0.4-15.5,0.8-22.2,1.1c-3.1,5.9-5.8,11.1-8.8,16.6c1.7,0,3.4-0.2,5,0.1c1.6,0.3,4.1,0.6,4.4,1.6
		c0.5,1.3-0.1,3.8-1.1,4.8C470.1,96.5,466.9,98.6,464,100.8L464,100.8z M550.3,265.2c-3.3,9.4-3.8,28.1-1.2,34.6
		c5.9-1,9.9-4.6,11.1-10.2C562.5,279.8,557,272.7,550.3,265.2L550.3,265.2z"/>
	<path style="clip-path:url(#SVGID_00000053531089495412367530000002243981465687478441_);fill:#FDF6E8;" d="M269.2,103.7
		c2.9-2.5,4.4-4.1,6.1-5.4c2.8-2.2,5.9-6.2,8.5-6c3.1,0.3,7.5,3.9,8.4,6.9c2.2,7.5,3.8,15.6,3.5,23.3c-0.6,13-6,24.7-13.6,35.2
		c-7.6,10.5-14.2,11.6-25.4,5.2c-1.2-0.7-5.4,0.8-5.8,2c-2.8,9.3-10,12.2-18.4,14c-11.6,2.4-19.7,9.2-23.9,20.3
		c-0.7,1.9-1,4.1-1.5,6.1c11.4,2.3,11.6,2.5,10.1,14.1c-3,23.3-5.9,46.6-9.1,69.9c-0.3,2.1-1.7,4.1-2.6,6.2
		c-1.8-1.6-4.6-2.8-5.3-4.7c-2-5.5-3.1-11.4-4.7-17.1c-0.8-2.9-1.4-6.3-3.3-8.5c-14.4-15.9-21-34.4-19.6-55.8
		c0.4-6.5,0.7-13.2,0.2-19.7c-0.8-9.5-6.4-14.9-15.6-16.9c-1.4-0.3-2.9-2.2-3.4-3.7c-0.6-1.8-0.1-3.9-0.1-6.4
		c-1.8,0.5-3.5,1.6-4.9,1.2c-1.7-0.4-3.8-1.6-4.5-3.1c-3-7.1-5.1-14.5-8.4-21.5c-6.5-13.6-4-29.4,7.2-39.3c2.9-2.6,6.7-5.5,10.2-5.6
		c5.4-0.2,7.5-3.2,10.6-6.5c5.5-5.9,12-10.9,18.4-16c3.9-3.1,8.3-5.5,11.5-7.6c-2.2-3.3-4.3-6.6-7-10.6c-3.1,4.3-6.4,9.3-10,13.9
		c-1.4,1.8-3.7,2.9-5.6,4.3c-0.6-2.5-2-5.3-1.5-7.6c0.7-3.2,2.3-6.6,4.5-8.8C190,40.3,207,26.5,228.7,20.3
		c6.6-1.9,13.8-2.3,20.6-1.9c15.1,0.9,22.9,10.1,22.3,25.3c-0.7,17.7-1.6,35.4-2.4,53.1C269.1,98.4,269.2,100,269.2,103.7
		L269.2,103.7z M229.8,27.5c6.4-3.5,11.8-0.9,17.2,2.5c4.3,2.7,7.9,7,13.9,5.8c0.7-0.1,2.4,1.3,2.4,2c0,1.1-0.8,2.6-1.8,3.2
		c-1.3,0.8-3,1.1-4.5,1.5c-27.7,8.3-53.5,20.6-76.7,37.9c-5.5,4.1-9.9,9.6-14.5,14.8c-0.9,1.1-1,4.1-0.1,5.2
		c1.1,1.4,3.5,2.1,5.5,2.4c1.2,0.2,2.6-0.8,3.9-1.2c8-2.4,12.8-0.6,17.3,6.4c0.8,1.3,1.7,2.5,3.1,4.4c8.4-14.1,19.7-11.7,31.6-6.9
		c2.3,1,4.8,1.5,6,1.9c2.5-1.9,4.5-4.4,5.5-4.1c7.2,2.3,0.9,8.3,3.3,13c4.9-2.3,9.7-4.5,14.5-6.8c4.9-2.4,6.9-6.3,7-11.9
		c0.6-18.3,1.6-36.6,2.4-54.9c0.3-7.4-1.6-13.7-9.1-16.5c-8.9-3.3-17.9-4.4-26.7,0.7C230,27.2,230,27.5,229.8,27.5
		c-1.3-0.1-2.8-0.8-3.9-0.4c-12.8,4.7-23.9,12.2-34.2,20.7c1.2,2.6,2.2,4.8,3.7,8c7-6.5,13.5-12.8,20.5-18.7
		C220.2,33.6,225.2,30.8,229.8,27.5L229.8,27.5z M211.8,212.6c-10.9-1.8-12.8-4.7-8.8-15c1.8-4.7,4.7-9.2,7.9-13.2
		c5.6-6.9,13.6-10.1,22.2-11.8c5.5-1.1,9.7-3.3,11.9-9.4c4.4-12.5,9.8-24.7,14.5-37.2c1.5-3.9,2.2-8,3.5-12.7
		c-5.8,2.6-10.1,5.2-14.8,6.6c-5.5,1.6-10.4,3.2-12.5,9.3c-0.7,2-3.2,3.5-4.8,5.2c-3.7,4-8,7.6-11.1,12.1
		c-5.1,7.3-11.7,11.2-20.6,10.8c-2.9-0.1-5.7-0.6-8.7-1c1.3,10.5,5.4,13.5,15,11.2c2.3-0.6,4.6-1.6,6.9-1.8c1.7-0.2,3.5,0.6,5.3,1
		c-0.7,1.7-1,3.9-2.2,5c-4.1,4.1-9.3,5-14.9,4.3c-2.5-0.3-5.1-0.4-7.6-0.1c-13.5,1.6-18.6-1.6-23.8-14.3c-1.5-3.8-4.1-7.1-6.3-10.7
		c-0.6,0.2-1.2,0.4-1.8,0.7c-0.6,5-1.1,10-1.7,14.7c13.5,5.4,19.1,13.1,19.5,27.1c0.2,5-0.1,10-0.5,14.9
		c-1.7,20.4,4.6,37.9,18.3,53.1c2.5,2.8,3.4,7.3,4.6,11.2c0.7,2.3,0.7,4.9,1,7.3c4-22.1,6.9-44,9.7-65.9
		C212.1,213.7,211.9,213.3,211.8,212.6L211.8,212.6z M224.2,111.3c-0.7-0.4-1.1-0.8-1.4-0.8c-5.4-0.5-11-2.2-16-1.2
		c-5.7,1.1-1.6,7.3-3.4,10.8c-1.1,2.2-2.7,4.7-4.7,5.8c-1.6,0.9-9.5-6.5-9.5-8.2c0.1-5.1-2.2-8.9-6.8-10.7c-5.2-2.1-6.1,2.5-7.7,5.8
		c-0.9,1.8-1.9,3.5-2.7,5.3c-4.2,9.4-8.3,18.8-8.5,29.8c19.7-5.2,38.8-10.3,58-15.4c4.1-1.1,7.6-3.3,8.7-7.9
		C222.7,120.8,221.9,118.9,224.2,111.3L224.2,111.3z M158.5,125.1c-6.4,1.2-7.4,4.5-5.4,9.3c0.6,1.5,1.4,3,1.4,4.5
		c0,1.1-1,2.6-1.9,3.1c-0.6,0.4-2.7-0.4-2.9-1.1c-1.5-4.7-3.3-9.4-3.5-14.3c-0.1-1.7,3.8-3.7,6-5.5c1.4-1.1,3.1-1.8,4.4-3
		c3.2-2.8,6-3.8,8.1,1.8c1.8-3.9,3.2-6.9,4.7-10c-9.1-1.4-9.6-1.8-13.1-10.6c-2.1,0.8-4.4,1.4-6.3,2.6c-9.7,6.1-14.7,19.7-10.5,30.4
		c3.2,8.2,7.3,16,11.3,24.7C158.2,147.3,159.3,136.7,158.5,125.1L158.5,125.1z M268.3,118.8c-1.6,4.7-3,8.7-4.2,12.2
		c2.9,0.1,5.8,0.3,9.9,0.5c-0.5,0.6,0-0.4,0.8-0.9c1.8-1,3.8-1.8,5.7-2.7c-0.1,2.1,0.3,4.5-0.5,6.4c-2.5,5.8-5.3,11.5-8.6,16.9
		c-1,1.7-3.7,2.5-5.7,3.6c-1.7,0.9-3.4,1.8-5.4,2.8c6,5,10.5,4.9,15-0.8c10.4-13.2,16.4-28.2,14.5-45.3c-0.5-4.8-3-9.4-4.5-14.1
		c-0.8,0.1-1.5,0.1-2.3,0.2c-1.1,1.9-3.6,4.3-3.2,5.8c1.8,6.1-2.5,10.1-4.3,14.9C273.9,122.3,271.3,122.4,268.3,118.8L268.3,118.8z
		 M200.9,59.2c15-6.7,30.9-13.7,46.7-20.7c-8.4-8.6-14.2-9.1-23.2-1.1C216,44.7,208.1,52.5,200.9,59.2z M171.2,151.9
		c5.3,7.6,4.1,19.9,17.7,18.3c-1.4-3.5-3.2-6.7-3.9-10.1c-0.8-3.6-0.6-7.3-1-11.6C180,149.6,176.1,150.6,171.2,151.9L171.2,151.9z
		 M188.7,147.3c10.8,7.7,22.1,4.5,27.2-7.1C206.9,142.5,198.4,144.8,188.7,147.3z M267.7,138.9c-0.6-0.4-1.3-0.9-1.9-1.3
		c-3,4-5.9,8.1-8.9,12.1l2,1.4C262.3,147.4,268,145.4,267.7,138.9L267.7,138.9z"/>
	<path style="clip-path:url(#SVGID_00000053531089495412367530000002243981465687478441_);fill:#FDF6E8;" d="M231.6,445.5
		c-1.3,4.1-2.4,8.2-4,12.1c-3.3,8.3-6.2,16.9-10.6,24.5c-3,5.1-7.8,9.7-12.7,13.1c-11.3,7.5-22.1,4.7-28.8-7.1
		c-10.5-18.3-15.9-38.2-16.6-59.2c-0.4-11.5-0.8-23-0.2-34.5c0.3-6.5,3.4-12.2,10.5-14.6c1.2-0.4,2.1-2.2,2.7-3.5
		c1.4-3.1,2.4-6.4,4-9.3c4.2-7.5,9.1-8.5,15.9-3.5c13.4-10.6,25.4-8.3,28.7,4.3c6-1.5,11.9-4.3,17.8-4.3c7.6-0.1,8.9,3.9,6,10.9
		c-2.7,6.5-4.6,13.3-7,20.3c4.1-0.2,7.5-1.4,9.6-0.3c2.5,1.4,4.5,4.4,5.8,7.2c6.1,13.7-0.3,30.9-13.8,36.5v62.5
		c1.7-0.8,3.2-1.1,4.4-1.9c17.4-11.7,27.6-27.2,25.8-49.1c-1.7-21.7,1.6-43,6.1-64c1.4-6.6,5.9-12.9,10.1-18.5
		c5.9-8,7.3-12.8,0.7-20.2c-7.8-8.6-16.4-16.8-25.7-23.8c-7.8-5.8-11.6-4.4-17.2,3.4c-3.4,4.7-8.2,6.3-13.2,4.5
		c-11.7-4.4-23.1-9.6-34.6-14.7c-2.5-1.1-4.5-3.2-6.9-5c-0.3,0.7-1.1,2.4-1.7,4.2c-2.5,7.3-7.1,10.1-14.7,8.7
		c-2.7-0.5-5.4-1.5-8-2.3c-7.3-2.2-12.1,0-14.2,7.4c-0.9,3.2-1.2,6.7-1,10c1.1,17.4-3.3,33.6-10.5,49.1c-3.6,7.8-7,15.7-11.2,23.1
		c-3.3,5.9-2.3,9.7,2.8,13.7c5.2,4,9.7,8.9,14.8,13c3.4,2.8,3.6,5.2,1.7,9.2c-4.1,9-7.6,18.3-11,27.6c-0.8,2.2-0.8,4.7-0.8,7.1
		c-0.2,10.9,4.5,15.6,15.5,15.6c2.2,0,4.4-0.4,6.6-0.1c1.1,0.1,2.6,1.4,2.8,2.2c0.1,0.9-1,2.5-2,3c-12.8,5.7-28.9-3.8-28.4-17.9
		c0.3-9.5,3.6-19,6.1-28.3c1.3-4.5,4-8.6,6.3-13.2c-5.9-5.3-11.9-10.6-17.8-16c-5.7-5.2-6.4-8.8-3.1-15.9
		c6-13.2,12.8-26.2,17.5-39.8c3.2-9.2,3.4-19.4,4.7-29.2c0.6-4.5,0-9.2,1-13.6c2.6-11.4,10.9-16,22-12.6c1.5,0.5,3,1.1,4.5,1.5
		c6.9,2,8.6,0.9,11.1-5.6c0.9-2.5,2.5-5.7,4.6-6.5c2.3-0.9,6-0.3,8.4,1c4.7,2.6,8.6,6.7,13.4,9.2c6.5,3.4,13.5,5.9,20.3,8.7
		c4.9,2,8.6,1.2,11.6-3.8c3.7-6.2,8.3-7.9,15.3-6.1c3.1,0.7,6.5,1.6,8.8,3.5c9.5,8.4,19.3,16.6,27.5,26.2c7.6,8.8,6.7,17.3-1.3,25.7
		c-6.5,6.9-9.3,14.9-10.8,24c-3.4,20.3-5,40.6-4.5,61.3c0.6,24.6-14,40.1-34,51.4c-1.3,0.8-5.3-0.6-6.1-2.1c-1.5-2.6-2-6-2-9.1
		c-0.1-14.7,0.1-29.5,0.1-44.2c0-1.9,0-3.8,0-5.7C232.4,445.7,232,445.6,231.6,445.5L231.6,445.5z M191.8,442.3
		c3.9-0.9,6.6-1.4,9.2-2.1c4.6-1.2,6,0.2,4.7,4.7c-2,7-5.7,12.4-13.6,14.2c6.3,5.6,10.2,4.7,14.5-2.6c0.7-1.2,2.6-1.8,3.9-2.6
		c0.5,1.5,1.7,3.2,1.4,4.6c-1.1,5.9-8,10.5-14.5,10.1c-6.5-0.4-12.4-6.1-12.8-12.2c-0.2-3.1,0.5-5.3,4.3-4.1
		c4.2,1.3,6.7-0.6,9.2-4.6c-2.1,0-3.5,0-4.8,0c-8.3-0.2-9.1-1.3-6.5-9.1c2.6-7.9,5.2-15.8,8.4-25.5c-4.4,1.1-7.3,2.3-10.3,2.4
		c-2.3,0.1-6.2-0.5-6.7-1.7c-1.1-3.1-1-6.7-0.5-10c0.1-1,3.2-2.8,4.4-2.4c10,2.9,19.8,6.2,29.7,9.4c7,2.3,13.9,4.6,22,7.3
		c-3.8-17.9-1.7-33.1,5.8-48.3c-6.3-1.6-10.8,0.4-14.4,4.4c-4,4.4-7.5,9.3-11.4,13.8c-4.5,5.1-9.9,8.8-17.1,8.4
		c-1.7-0.1-3.3-1.6-5-2.4c1.1-1.4,1.8-3.4,3.3-4.2c7.1-3.7,12.8-8.8,16.5-15.9c1.5-2.8,4.3-5.9,0.2-8.9c-3.9-2.8-8.1-3.4-12.2-0.4
		c-7.8,6-7.8,6-16.1,1.5c-1.3,2.1-3.3,4.1-3.8,6.4c-2.1,8-3.6,16.2-5.4,24.3c-0.4,1.7-0.2,4.1-1.3,5c-6.4,5.3-8,12.9-8.4,20
		c-1,21.9,4.3,42.7,14.9,62c6.1,11.1,14.5,12.7,24.5,4.6c7.2-5.8,11.3-13.8,14.4-22.3c5.1-13.8,10.1-27.6,15.2-41.4
		c0.1-0.3-0.2-0.7-0.3-1.2c-10.7-2.8-21.4-5.6-32.5-8.5C198,423.8,195.1,432.3,191.8,442.3L191.8,442.3z M243.9,400
		c-5.2,6-6.1,20.7-1.9,28.8C250.6,421,251.5,407.3,243.9,400z"/>
	<path style="clip-path:url(#SVGID_00000053531089495412367530000002243981465687478441_);fill:#FDF6E8;" d="M448.6,419.6
		c-7.4,8-14.2,14.9-20.4,22.4c-13.1,15.7-27.4,16.3-44.6,3.6c-14-10.2-20.3-24.7-19.2-42.2c0.2-3-0.3-6.7,4.3-7.4
		c0.5-0.1,1.1-1,1.4-1.6c3.1-5.4,5.9-11,9.3-16.2c4.8-7.1,13.3-8,19.7-2.3c5,4.5,10.5,5.8,17.2,5c4.7-0.5,9.7,0.8,16.2,1.5
		c0.6-6.9,1.3-14.2,2-22.1c-10.2,1.5-18.9,3.4-27.7,3.9c-8.9,0.5-17.8-0.5-26.7-0.6c-1.7,0-3.9,0.7-5.2,1.8
		c-6.5,5.5-10.9,12.7-11.5,21c-1.1,14-1.6,28.2-0.9,42.3c0.7,13.3,7.7,23.6,18.9,31.1c2.8,1.9,5.6,3.8,8.4,5.7
		c3.4,2.4,3.8,4.8-0.4,6.4c-13.5,5-27.1,9.6-41.8,8.3c-22.2-1.9-37.3-16.3-38.1-38.6c-0.4-11.1,1.4-22.7,4-33.6
		c4.3-17.6,10.2-34.8,15.2-52.2c3.6-12.4,11.2-21.2,23.2-25.5c35.6-12.6,70.3-11.8,103.8,7.2c1.2,0.7,2.4,1.5,3.5,2.3
		c13.2,9.5,15.4,11.8,9.9,26.3c-4.3,11.3-2.6,23.2,1.1,34.7c2.8,8.9,5.9,17.8,8,26.9c1.2,5.1,1.4,10.8,0.8,16
		c-3.1,26.7-26.8,31-43.3,23.9c-2-0.9-3.9-4-4.2-6.3c-1.4-11.4,3.2-20.5,11.6-28C449.5,427.7,449.6,426.9,448.6,419.6L448.6,419.6z
		 M450.9,414.2c5.7,5,6.4,11.8,0.7,18.8c-2.2,2.8-5,5.1-7.5,7.7c-4.9,4.9-7.4,10.9-7,17.8c0.1,1.6,1.3,3.9,2.6,4.6
		c11.9,6.1,28.2-0.3,31.6-13.3c1.8-6.9,1.8-14.7,0.6-21.7c-1.5-8.9-5.1-17.6-7.8-26.3c-4.2-13.5-4.9-27.2,0.1-40.5
		c2.3-6,1.1-9.5-3.9-13c-34.1-24.1-70.6-25.4-108.6-11.3c-9.1,3.4-14.6,10.6-17.4,20c-5.4,18.6-11.5,36.9-16.1,55.7
		c-2.4,9.9-3.5,20.5-2.9,30.7c0.9,13.6,8.1,24.2,21.6,28.9c15.4,5.3,30,1.5,45.3-4.1c-2-1.5-3.2-2.5-4.5-3.3
		c-12.6-8.6-20.3-20.5-21.3-35.7c-0.9-12.5-0.9-25.1-0.1-37.6c0.7-11.6,4.9-22.3,14.2-30c3.9-3.2,8-8.7,14.1-2.8
		c0.8,0.7,2.7,0.5,4.1,0.3c14.2-1.5,28.5-2.7,42.6-5c5.1-0.8,7.1,0.2,7.7,4.9c0.4,3.3,0.9,6.6,1.3,9.9c13.7-0.8,21,6.7,18.5,20.1
		C457.4,397.3,453.9,405.2,450.9,414.2L450.9,414.2z M421.6,439.7c-20.3-4.2-36.1-15.8-51.8-29.7c2.8,17.4,11,29.8,26.8,36.3
		C407.5,450.8,413.9,448.9,421.6,439.7L421.6,439.7z M382.6,413.4c5.4,5.3,11.1,9.6,17.9,7.5c2.9-0.9,4.7-6.2,6.5-9.8
		c3.3-6.4,6.1-13,9.4-19.3c0.7-1.4,2.9-2,4.4-3c0.5,1.5,1,3,1.5,4.4c1.1,3.2,2.2,6.3,3.3,9.5c0.6-0.2,1.1-0.4,1.7-0.7
		c0.4-4.3,0.8-8.6,1.2-12.7c-7.4-3.8-12.9-3.5-16,0c-2.1,2.3-5,4-7.5,5.9C400,403.6,395.8,413,382.6,413.4L382.6,413.4z
		 M432.6,393.5c1.2,4.9,1.6,9.5,3.6,13.3c2.1,4,6.5,4.4,9.4,0.9c6.1-7.5,8.8-16.4,7.4-26c-0.7-4.3-3.4-7.8-8.8-6.7
		c-4.1,0.9-8.2,8.4-6,11.9C441.4,392.1,438.6,392.9,432.6,393.5L432.6,393.5z M389.2,384.8c-9.3-0.2-15,5.5-12.9,13.9
		c0.8,3.1,4,6.5,6.9,7.8c2,0.9,5.9-1,8.2-2.7c2.1-1.5,3.6-4.2,4.8-6.7C401.2,387.9,399.5,385,389.2,384.8L389.2,384.8z M426,435.4
		c5.5-6,11.4-12.5,16.9-18.6c-4.6-1.9-8.4-3.6-11.7-4.9c-4.8,5.9-8.6,12.3-9.6,19.8C422.7,432.6,424.1,433.8,426,435.4z
		 M404.3,428.5c4.2,0,7.5,0.4,10.5-0.2c1.3-0.3,3.2-4,2.9-4.2c-2.2-2.1-4.8-3.7-7.2-5.5C408.4,422,406.8,424.5,404.3,428.5
		L404.3,428.5z M419.7,402.3c-0.7,0.2-1.4,0.4-2,0.6l-5.2,10.9c0.3,0.5,0.6,1.1,0.9,1.6c3.6-1,7.1-1.9,10.7-2.9
		C422.6,409.1,421.2,405.7,419.7,402.3L419.7,402.3z"/>
	<path style="clip-path:url(#SVGID_00000053531089495412367530000002243981465687478441_);fill:#FDF6E8;" d="M288.8,198.6
		c-0.9-2.9-1.5-5.6-2.5-8.2c-3.4-9.2-2.3-18,3.4-25.5c15.8-20.6,35.7-35.7,60.9-42.8c4.4-1.3,9.5-1.1,14.2-0.6
		c12.1,1.4,18.7,8.8,18.6,20.8c-0.2,20.9-4.9,41.1-10.6,61c-0.4,1.3-1.8,2.3-2.8,3.5c-1.2-1.1-2.3-2.3-3.6-3.2
		c-2.3-1.7-4.7-4.5-7-4.5c-9.1,0-18.1,0.9-27.2,2.7c8.1,1.2,16.2,2.3,24.2,3.7c2.2,0.4,4.2,1.8,6.3,2.7c-1.2,1.9-2.1,4-3.6,5.7
		c-2.4,2.6-5.1,5-8.4,8.1c6.2,0.5,11.4,0.7,16.6,1.5c8.5,1.3,9.9,2.8,11.5,11.5c1.9-0.4,3.7-1.1,5.6-1.3c4.6-0.4,8.4,1.3,8.6,6.1
		c0.6,13.7,1.7,27.5,0.5,41.1c-1.1,12.9-13.5,16.9-26.8,10.4c-4.6,6.8-8.5,14-13.7,20.1c-10.8,12.6-24.6,20.1-41.7,20.1
		c-12,0-17.9-4.4-19.7-16.3c-1.7-11.4-2.1-23-2.9-34.4c-0.2-3.1,0-6.3,0-9.3c-11.9-1.9-17.2-7.2-16.1-19.3c1.2-12.2,4.6-24.2,7-36.3
		c0.8-4.2,4.2-8.4-0.2-12.7c-0.1-0.1,1.4-2.9,2.7-3.5C283.9,199,286.2,199,288.8,198.6L288.8,198.6z M295.4,198.2
		c12.7-1.2,25.5-2.7,38.3-3.4c11.7-0.6,23.5-4.8,36.6,1.7c2.6-18.5,5.5-35.9,7.2-53.4c1-9.9-4.4-15.8-14.4-15.8
		c-7.3,0-15.2,1.3-21.9,4.1c-14.5,5.9-26.8,15.6-38,26.4C289.2,171.3,287.6,179.4,295.4,198.2L295.4,198.2z M358.1,292.4
		c-6.6,5.6-12.1,10.6-18,15.1c-5,3.8-10,8.3-15.8,10.3c-14.2,5.1-27.2-5.4-24.5-19.2c0.5-2.7,1.9-5.1,2.9-7.7
		c-6.9-6.4-7.1-6.6-0.3-12.8c7.2-6.5,14.7-12.8,22.4-18.8c1.5-1.2,4.1-1.1,6.2-1.7c-0.4,2.1-0.3,4.5-1.4,6.2
		c-4.9,7.2-10.1,14.2-15.9,22.1c6.4-1.2,11.6-2.5,16.9-3.1c5.3-0.6,10.8,0,16.1-0.7c12-1.6,20.7-11.6,20.3-22.9
		c-11.5,6.3-21.9,6.4-28.7-0.5c-2.2-2.3-4.8-5.8-4.6-8.6c0.3-5.8,2.3-11.6,3.6-17.2c-7.9-0.6-16.1,4-19.4,12.9
		c-4.3,11.4-12,18.5-23.4,21c0,4.8-0.3,9.4,0,13.9c0.8,11.5,1.5,23,3,34.4c1.1,7.9,4.7,10.3,12.7,10.6
		C329.4,326.5,350.1,312.5,358.1,292.4L358.1,292.4z M284,223.1c12.5-11.6,30.6-5.6,36.2,8.6c12.7-3.6,24.8-8.4,33-22.1
		c-20.5-1.3-40.2-2.5-60-3.7c-4-0.3-6.1,1.6-6.6,5.7C286.2,215.1,285.1,218.5,284,223.1L284,223.1z M312.9,239
		c0.2-9.1-4.8-14.7-12.2-13.8c-9.6,1.2-20.4,11.4-22,20.9c-1.5,9,4.6,15.7,13.7,14.9C303,260.2,312.7,249.8,312.9,239z M348.6,228.1
		c-0.3,0.4-0.7,0.8-1,1.2c5,4,4.2,5.7-1.2,7.8c-3.1,1.3-5.9,5.6-7.1,9.1c-1.5,4.4,1.5,7.9,5.5,10.2c5.7,3.2,13.6,2.1,18.9-2.6
		c5.7-5.1,8.2-11.7,8.5-19.1c0.1-1.7-2.4-4.7-4.1-4.9C361.6,228.8,355.1,228.6,348.6,228.1L348.6,228.1z M387.3,239.5
		c-7.6,1.6-10.8,5-12.3,12.6c-1.8,9-3.2,18-5.1,26.9c-1.4,6.4,2.1,10.7,8.7,10c5.2-0.5,9.2-4.4,9.5-10.6c0.4-8.1,0.3-16.3,0.2-24.5
		C388.3,249.3,387.7,244.6,387.3,239.5L387.3,239.5z M313.9,291.3c11,11.8,28.7,11.6,39.7-4.3C340.7,288.4,327.8,289.7,313.9,291.3z
		 M329.8,308.2c-7.9-1-16-1.9-23.9-2.9C310.1,314.7,321,315.9,329.8,308.2z"/>
	<path style="clip-path:url(#SVGID_00000053531089495412367530000002243981465687478441_);fill:#FDF6E8;" d="M2.7,489.7
		c3.4,16.4,6.9,32.8,10.4,49.8c1.1,0.1,3.2,0.2,6.5,0.3c-4.7-8.5,0.2-13.9,4.8-19.4c5.1-6.1,10-12.4,15.3-18.4
		c1.2-1.3,3.5-1.6,5.3-2.4c0.2,1.8,1,3.9,0.4,5.5c-4.5,11.4-9.2,22.8-14.1,34.6c2.3,0,5,0.2,7.6,0c5.7-0.4,7.2,1.3,5.5,6.8
		c-0.7,2-1.8,3.9-3,6.3c2.8,0.6,5.6,1,8.1,1.9c1.1,0.4,2.2,1.7,2.5,2.8c0.2,0.8-0.8,2.2-1.7,2.8c-11.3,8.6-35.3,5.2-45.7-5.9
		c1.3,7,2.5,14,4.1,20.9c0.2,0.9,2.4,1.7,3.7,1.8c19.3,0.8,38.6,1.6,57.9,1.9c2.2,0,5.3-2,6.4-3.9c7.1-12.7,13.8-25.6,20.8-38.3
		c1-1.8,3.2-2.8,4.8-4.2c0.4,2,1.1,4.1,1,6.1c-0.2,5.6-0.7,11.2-0.1,17c8.5-8.3,12.8-18,13.3-29.9c-2.3,0-4-0.2-5.7,0
		c-7.2,0.7-7.5,0.1-5.3-6.9c2.3-7.2,4.3-14.4,6.6-21.9c-13.1,3.7-25.9,3-38.5,1.5c-8.1-1-10.8-7.9-7.7-16.4
		c-5.3-5.8-10.3-6.1-20.7-1c0.1,1,0.3,2.1,0.4,3.3c0.4,4.9-0.7,9.2-5,12c-4.4,2.8-8.7,1.9-13-0.5c-6.6-3.8-13.5-7.2-20-11.3
		c-1.8-1.2-3.5-4-3.7-6.1c-0.6-7.5,4.9-14,12.2-15.4c1.9-0.4,3.8-0.5,5.8-0.8c-3.7-5.1-9.2-7.8-16.6-8c-1.1,4.2-2.2,8.6-3.3,12.9
		c-5.1-16.2-1.2-27,13.1-35.2c15.5-8.8,31.9-13.3,49.9-10.4c9.7,1.6,19,5,25.4,12.2c9.2,10.4,17.5,21.6,25.4,33
		c5.3,7.8,4.4,17.2,2.6,26.1c-1.8,8.8-4.1,17.4-6.2,26.2c0.1,0.1,0.4,0.5,0.6,0.5c10.5,0.9,10.8,1.4,9.1,12.1
		c-1.8,11.1-6.3,21-14.1,29.1c-1.7,1.8-4.1,2.8-6.2,4.2c-1.3-2.1-2.8-4.1-3.9-6.3c-0.7-1.4-0.8-3-1.6-6c-3.6,6.4-6.5,11.8-9.6,17.2
		c-9.8,16.8-6.5,15.4-26.9,14.4c-16.3-0.8-32.6-0.9-49-0.8c-4.8,0-7.4-1.4-7.8-5.8c-0.8-10.3-1.3-20.6-1.9-30.9
		c8.6-11.9,1.9-23.9,0.4-35.9c-0.9-6.8-0.2-13.9-0.2-20.8C1.9,489.8,2.3,489.8,2.7,489.7L2.7,489.7z M105,478.3
		c2.8,2.7,5.5,5.4,8.3,8.1v-10.9C110.3,476.5,107.7,477.4,105,478.3c-1.5-2.7-2.3-6.2-4.5-7.9c-8.2-6.4-17.7-5.4-27.8-3.7
		c4,5.2,8.5,6.8,14.1,6.6C93.3,473,99.9,473.2,105,478.3L105,478.3z M109.6,466.2c-4.8-6.5-9.4-13.1-14.4-19.5
		c-13.2-17.1-30.6-23.2-51.7-19.3c-11.9,2.2-22.8,6.9-32.4,14.3c-1.4,1.1-1.9,3.2-2.8,4.9c1.5,0.6,3,1.1,4.4,1.8
		c3.5,1.7,7.9,2.7,10.1,5.4c5.9,7.3,13,11.4,22.3,13.1c6.1,1.1,11.7,3.7,15.6-3.5c0.5-0.9,1.9-1.4,2.9-2
		C75.7,455.1,98.8,458,109.6,466.2L109.6,466.2z M70.2,490.9c2.8,1.1,4.4,2.3,6,2.3c9.1,0.2,18.3,0.2,27.4-0.1c1,0,3-4.3,2.6-4.7
		c-2.9-3-6-7.3-9.6-7.9c-7.6-1.2-15.5-0.4-24.6-0.4C76.7,484.7,74.6,487.6,70.2,490.9L70.2,490.9z M37.8,547.7
		c-0.2-0.7-0.3-1.5-0.5-2.2H11.7c-0.5,10.2,12,16.6,23.3,12.3c-1.2-0.4-2.2-0.5-3-1c-1.6-0.9-3-2.1-4.5-3.1c1.4-1,2.8-2.2,4.3-3.1
		C33.7,549.5,35.7,548.6,37.8,547.7L37.8,547.7z M16.7,480.4c5.7,4.2,10,7.7,14.7,10.6c1.5,0.9,4.8,1.1,5.9,0.1
		c1.5-1.3,2.8-4.6,2.1-6.2c-1-2.4-3.5-5.6-5.7-5.8C28.6,478.7,23.3,479.8,16.7,480.4L16.7,480.4z M33.5,520.6
		c-3.7,4.6-11.1,7.3-7.9,15.5C28.2,530.9,30.8,525.7,33.5,520.6z"/>
	<path style="clip-path:url(#SVGID_00000053531089495412367530000002243981465687478441_);fill:#FDF6E8;" d="M124.7,271.2
		c0.7,8.6,1.8,16.7,1.8,24.8c0.1,8.7-0.3,17.5-1.5,26.1c-1.5,10.6-6.5,20-14.9,26.5c-11.8,9.1-23.9,18-36.8,25.3
		c-6.9,3.9-15.8,5.2-24,5.7c-11.1,0.6-19.2-6.1-22.8-16.7c-1.1-3.4-2-7-2-10.5c-0.1-8.5-1.1-15.7-8-22.6c-8.6-8.6-4.7-28.6,6.1-37.2
		c3-2.4,3.6-4.6,3.8-7.8c0.1-2.2-0.1-4.5,0.5-6.5c1.3-4.3-1.3-6.1-4.2-8.1c-2-1.3-3.4-3.3-4.7-5.6C0.6,256.8-3.7,239.7,9,225.1
		c7.7-8.8,17.4-16.2,28.8-16.6c8.4-0.3,11.3-4.2,15.4-9.4c9.4-11.8,21.3-14.3,34.5-7c6.9,3.8,13.3,8.8,19.6,13.6
		c18.6,14.1,37,28.3,55.5,42.5c5.3,4.1,5.3,5.2,0,9.2C151.9,265.8,139.1,269.3,124.7,271.2L124.7,271.2z M159,253
		c-1.4-1.2-2.2-2-3.1-2.7c-20.2-15.5-40.4-31.1-60.7-46.6c-3.5-2.6-7.2-5.1-11.1-7c-10.2-5-18.3-3.4-25.6,5.4
		c-3.2,3.8-5.4,8.4-8.5,12.2c-1,1.2-4.8,2.1-5.3,1.5c-3.1-3.8-6.7-2.6-9.8-1.1c-5.9,2.9-12.1,5.7-16.8,10c-4.2,3.8-7.8,9.2-9.5,14.6
		c-2.9,8.9,2,16.5,11.3,18.3c7.1,1.4,14.5,3.1,21.9,0.2c1.8-0.7,4.4-0.1,6.3,0.7c21.5,8.9,44.2,7.2,66.6,7.4
		c4.2-4.4,8.8-1.8,13.7-1.8C139.1,264.2,149.3,260,159,253L159,253z M30.2,341.6c-0.7,10-1.1,21.3,8.6,28.6c9.6,7.3,20.8,4.9,30-0.6
		c13.6-8,26.6-17.3,39-27.2c4.7-3.7,7.8-10.1,10-15.9c5.2-13.7,3.8-27.9,1.6-42.1c-0.9,1.1-1.3,2.4-1.7,3.6
		c-3.5,12.1-11.3,18.5-23.7,19.4c-6.5,0.5-12.9,1.4-19.4,1.5c-4.9,0.1-9.8-0.8-14.8-1.3c-1.4-0.1-3-1.2-4-0.8
		c-6.2,3.1-9.2-1.1-12.4-5c-3.3-3.9-6.8-7.8-11.3-12.9c-0.6,15-1.2,28.1-1.6,41.2c0,1.3,1.4,3.7,2.4,3.9c8.6,1,17.2,1.6,25.7,2.2
		c0.3-2.1,0.3-2.7,0.4-3.3c0.6-2,1.2-3.9,1.9-5.8c1.7,1.3,3.3,2.8,5.1,3.9c3.3,1.8,6.9,3.3,10.3,5c1.7,0.9,3.2,2,4.8,3
		c-1.7,1-3.2,2.7-5,3c-3.1,0.5-6.4,0.1-10.1,0.1c3.1,5.8,6.9,6.5,11.3,3.4c2.7-1.9,4.8-4.8,7.4-6.8c1.1-0.9,3-0.9,4.5-1.3
		c0,1.6,0.7,3.6-0.1,4.6c-1.8,2.6-4,5-6.5,6.9c-8.5,7-16.7,5.2-22.2-4.4c-0.8-1.4-2.8-2.8-4.3-2.8C47.7,341.4,39.1,341.6,30.2,341.6
		L30.2,341.6z M116,272c-2.4,0-3.9,0-5.5,0c-21.8-0.5-43.9,0.8-64.8-7.9c-1.3-0.6-4.2,0.7-5.4,2c-8.2,8.9-8,14.2,0.2,23.3
		c6.7,7.5,11.9,7.4,18.7,0c0.9-1,2.9-1,4.4-1.5c0.1,1.6,0.8,3.4,0.3,4.8c-1.1,2.9-2.8,5.5-4.4,8.5c10.9,4.2,20.7,0.9,30.5-1.5
		c4.2-1.1,8.7-3.6,12.6-3c3.9,0.7,5.9-0.2,6.9-3.2C111.9,286.6,113.8,279.5,116,272L116,272z M24.7,329.9c-1-7.7-1.8-14.3-2.7-20.9
		c-0.1-1.2-0.3-2.3-0.5-4.3C16.1,314.8,17,323.2,24.7,329.9z"/>
	<path style="clip-path:url(#SVGID_00000053531089495412367530000002243981465687478441_);fill:#FDF6E8;" d="M99.5,112.4
		c4.6-0.4,6.9,1.1,5.4,6.1c-3.7,12.8-6.3,26-11.1,38.3c-6.1,15.7-18.8,20.3-34.6,14.5c-19.6-7.1-32.1-25.1-30-44
		c0.5-4.2,1.7-8.8,3.9-12.3c2.7-4.3,2.1-7.7-0.5-12c-3.6,4.9-7.3,2.9-11.1,0.4C8.6,94.9,9,76.3,22.5,68.1c3-1.8,4.5-3.7,4.9-7.3
		c0.8-6.7,1.5-13.6,3.5-20c2-6.7,5.1-13.3,8.4-19.5c3.4-6.6,7.6-12.8,12.5-20.8c3.5-1.4,6.4,0.9,7.6,6.4c1.1,5,2.2,10,3.8,16.9
		c5.4-7.3,10.1-13.3,14.4-19.7c1.7-2.6,2.9-4.2,6.6-3c2.3,0.8,5.3-0.3,8.9-0.6c-2.7,5.3-4.9,9.7-7.2,14.1c-2.9,5.5-4.2,5.6-7.8,1.2
		c-5.2,4.9-10.3,9.9-15.6,14.6c-1.1,1-3.6,1.8-4.7,1.2c-1-0.5-1.3-2.9-1.5-4.6c-0.6-5.6-0.9-11.3-1.5-17.7
		c-11.4,14.8-21,29.1-20.5,46.9c3.4,0.5,6.8,1.4,10.2,1.4c2.5,0,4.9-1.5,7.3-1.9c1.1-0.2,2.8,0.4,3.5,1.3c2.4,3-0.3,15.8-3.6,17.1
		c-1.2,0.4-3.4-0.9-4.7-1.9c-3.1-2.5-5.9-5.3-8.8-8c-0.7,0.4-1.5,0.7-2.2,1.1c0,8.3-0.6,16.6,0.2,24.7c0.6,6.1,14.5,13.6,22.5,13
		c9.4-0.6,15.9-6.4,16.8-15.5c0.4-4.5,0.1-9.1,0.1-12.1c-3.4-1.7-6.8-2.7-6.7-3.4c0.2-2.3,1.2-6,2.7-6.4c4.2-1.2,8.7-1,13.4-1.4
		c0.2-6.5,0.2-6.5,8.2-5.8c9.5,0.8,19,1.5,28.4,2.2c1.3-10.9-2.5-17.5-12.1-20.9c-3.9-1.4-8.2-2-12-3.7c-3.8-1.7-7.4-3.8-10.6-6.4
		c-3.1-2.5-3.1-5.2,0.8-7.5c6.8-4.1,10.9-10.2,13.3-17.8c0.5-1.7,2.8-3,5.1-3.7c0.2,11.3-5.3,19.2-14.7,26.5
		c4.6,1.8,8.2,3.2,11.8,4.5c4.5,1.6,9.2,2.7,13.4,4.9c8.2,4.2,14.4,19.3,11.3,27.5c-0.5,1.3-3.4,2.5-5.2,2.4
		c-8.8-0.4-17.5-1.2-26.2-1.8c-1.5-0.1-3.1,0-5.1,0c0.7,1.9,1.3,3.5,1.9,5.2c3-0.8,5.6-1.9,8.3-2.2c7.6-0.8,15.1,3.7,17.8,10.5
		c2.9,7.2,0.8,17.2-6.3,20.5c-6.8,3.2-10.5,8.1-13.7,14.1c-4.1,1.5-4.6-1.3-5.4-4.2c-1-3.7-2.2-7.4-3.6-11c-2-4.8-4.6-9.4-6.4-14.3
		c-1.2-3.4-1.5-7.2-2.2-10.8c0.2,33.5-13,43.6-42.4,30.9c1.8,6.4,3.4,12.4,5.2,18.9c4.4-3.1,8-6.1,12-8.2c1.7-0.9,4.3-0.3,6.5-0.4
		c-0.6,1.7-1.1,3.5-1.8,5.2c-0.4,1-1.5,1.9-1.6,2.9c-0.5,5.6-3.3,9.1-9,9.3c-5.2,0.2-11,0.8-12.6-6.5c-0.2-0.8-1-1.4-2.1-2.7
		c-0.6,1.9-1,3-1.2,4.1c-3.3,17.7,10.6,36.5,30.4,41c9.5,2.2,16.6-0.5,21.2-9.1C94.3,143.8,98.3,128.5,99.5,112.4L99.5,112.4z
		 M105.4,96.1c5.8-1.3,9.3-5.4,9.2-10.8c-0.1-3.5-2.7-7.8-5.4-10.2c-3.4-2.9-8-2.8-12,0.4C100,82.4,102.6,88.9,105.4,96.1
		L105.4,96.1z M25.2,73.5c-9.5,7.7-9.6,18.8,0,24.3V73.5z"/>
	<path style="clip-path:url(#SVGID_00000053531089495412367530000002243981465687478441_);fill:#FDF6E8;" d="M499.2,520
		c-1.1-5.2-4.3-6.9-8.5-6.6c-4.3,0.4-8.6,1.6-13,1.9c-3.5,0.3-7.2,0.3-10.6-0.6c-5.3-1.3-8.8-6.8-8.3-11.7c0.6-5.5,4.3-7.6,9.2-8.6
		c4.5-0.9,9-1.8,13.3-3.2c12-3.8,20.6-10.4,24.2-23.7c5.1-19.1,22-29.9,41.9-29.4c4.4,0.1,9.1-1,13.4-2.3
		c11.4-3.4,18.3,0.6,18.9,12.5c0.4,9.9-0.8,19.9-1.5,29.8c-1.4,20.3-2.6,40.6-4.4,60.8c-1.5,16.9-8.5,24.7-25.1,28.1
		c-14.1,2.9-27.8,2-40.5-5.6c-6.9-4.1-11.5-9.6-13.2-18.1c-0.8-3.6-2-7.9-3.7-11.5c-3.9-8.2-3.5-9.5,5.1-10.9
		C497.4,520.6,498.1,520.3,499.2,520L499.2,520z M521.6,453.6c6.6-1.1,12.6-1,17.5-3.2c8.7-3.9,17.2-4.2,26.3-2.8
		c3.7,0.5,5.3,2,4.9,5.8c-0.8,8.1-1.1,16.3-2.3,24.4c-1.1,7.6-3.3,15.1-4.3,22.7c-1.1,7.6-0.9,15.4-2.2,22.9
		c-1.2,7-6.2,8.5-11.3,3.4c-2.2-2.2-3.1-5.7-4.3-8.8c-0.6-1.6-0.4-3.6-1.2-5c-4.1-6.8-8.2-13.6-12.6-20.2c-1.1-1.6-3.5-2.5-5.4-3.5
		c-1.7-0.8-4.7-0.8-5.2-2c-1.4-3.7-1.9-7.8-2.6-11.7c-0.1-0.4,1-1.3,1.6-1.5c2.4-0.9,12.3,4.6,13.4,6.8c4.4,8.8,8.7,17.7,13.8,26.1
		c2.1,3.5,5.7,5.8,4.2,10.8c-0.4,1.4,1.6,3.5,2.5,5.2c0.6-0.1,1.1-0.2,1.7-0.2c0.8-5.6,1.8-11.3,2.4-16.9c0.3-2.7-0.5-5.1-4.5-4.6
		c-0.9,0.1-3.4-3.6-3-4.5c1-2.1,3.1-4.5,5.2-5c3.4-0.9,4.3-2.6,4.7-5.7c0.8-6.7,2-13.4,2.8-20.1c1.6-13.4-2-16.3-15.4-12.8
		c-0.6,0.2-1.1,0.3-1.7,0.5c-6.1,1.5-12.2,3.1-18.4,4.5c-7.8,1.8-14.7,5.3-17.2,13.2c-4,12.6-12.6,20-24.5,24.2
		c-5.4,1.9-11.2,2.8-16.7,4.5c-1.8,0.6-3.3,2.3-4.9,3.5c1.5,1.9,2.7,4.9,4.6,5.5c2.8,0.9,6.2,0.3,9.4,0.1c5.5-0.3,11.1-1.6,16.5-1.1
		c5.6,0.5,9.7,6.1,9.8,11.3c0.1,5.9-4,7.1-8.3,7.5c1.7,4.5,4.6,8.9,4.7,13.3c0.1,6.9,3.1,11.3,8.3,14.9c10.5,7.1,22.1,8.5,34.4,6.7
		c17.6-2.7,23.3-9.1,24.5-26.6c1.4-21.5,3.1-42.9,4.5-64.4c0.5-7.5,1.3-15.1,0.9-22.7c-0.4-7.2-3.7-8.4-10.6-7
		c-6.7,1.4-13.6,2.4-20.5,2.5C534.6,443.6,527.9,446.2,521.6,453.6L521.6,453.6z"/>
	<path style="clip-path:url(#SVGID_00000053531089495412367530000002243981465687478441_);fill:#FDF6E8;" d="M305.6,531.1
		c-2.4-3.8-4.4-7.2-6.6-10.7c-5.3,0.8-7.3,4.9-7.8,9.2c-1.6,15.2-2.8,30.4-4,45.7c-0.1,1.6,0.6,3.3,0.2,4.7
		c-0.5,1.7-1.8,3.1-2.7,4.7c-1-1.4-2.8-2.6-3-4.1c-1.4-17.6-0.4-35,3.6-52.2c1.5-6.5,4.6-11.8,11.7-13.9c1.3-0.4,2.6-2.2,3.2-3.6
		c7.2-19.3,30.8-32.3,50.8-27.5c14.4,3.5,23.5,12.6,26.6,27.5c0.3,1.6,1.1,3.6,2.3,4.3c8.4,4.6,10.3,12.3,8.7,20.5
		c-2.4,12.1,2.1,17.2,13.8,20.8c5.7,1.7,11.6,3.2,16.9,5.7c7.3,3.5,9.8,9.7,8.3,17.3c-0.8,3.9-2.3,6.4-6.9,4.9
		c-0.1-0.3-0.5-0.7-0.4-0.9c3.2-11.8,1.2-15.4-10.7-19.1c-4.6-1.4-9.4-2.1-13.7-4.1c-4.7-2.3-8.8-5.8-12.7-8.4
		c-5.9,2.1-12.3,4.4-19.6,7c-0.2,9.7,2.4,19.3,13.4,25.1c-8.6,1.9-11.3,1.4-14.3-5.6c-2.7-6.2-3.4-13.3-5-20c-0.4-1.7-0.2-4-1.3-4.9
		c-9.2-7.4-10-16.6-5.8-28.1c-9.3,2.1-17.8,3.8-26,6.2c-1.5,0.5-2.6,4.1-3,6.4c-0.3,1.5,1.4,3.4,1.3,5.1c-0.1,1.5-1.3,2.9-2,4.3
		c-1.2-0.8-2.7-1.3-3.6-2.3c-1.7-2-3.1-4.2-5.6-7.9c-1.2,3.9-2,5.8-2.4,7.8c-1.3,5.4-2.5,10.8-3.6,16.2c-1,4.9-4.3,4.5-6,1.5
		c-2.2-3.9-4.2-8.8-3.9-13.1C296.2,542.1,298,534.7,305.6,531.1L305.6,531.1z M371.3,513.1c-0.2-12.4-12-23.6-25.7-24.7
		c-17.6-1.4-37.2,11.4-39.5,24.8c4.9,4.3,9.5,8.2,15,13C337,522.1,354.2,517.6,371.3,513.1L371.3,513.1z M381.7,525.5
		c-0.5,0-1-0.1-1.5-0.1c-0.1,0.6-0.1,1.2-0.2,1.7c-0.7,4.7,1.2,10.1-7,11.4c-2.6,0.4-9.8,4.9-8.3,11.8c6.2,2,10.7-0.3,14.2-5.1
		C383.2,539.1,383.8,532.4,381.7,525.5L381.7,525.5z M372.7,529.4c0.8-0.1,1.6-0.3,2.5-0.4c-1.5-2.8-2.5-7.4-4.6-7.9
		c-7.4-2-14.3,3.8-15.5,11c3.7,1.1,7.4,2.2,11.1,3.2C367.9,533.7,370.3,531.5,372.7,529.4L372.7,529.4z"/>
	<path style="clip-path:url(#SVGID_00000053531089495412367530000002243981465687478441_);fill:#FDF6E8;" d="M324.8,0.9
		c-3.9,6.5-7.7,12.8-11.5,19.1c0.5,0.4,1,0.8,1.6,1.2c3.8-3.5,7.8-6.9,11.4-10.6c2.8-3,4.5-4,7,0.5c3.2,5.8,7.9,5.6,11.1-0.4
		c2.2-4.1,4.4-3.6,6.7-0.6c2.8,3.6,5.3,7.4,7.9,11.3c10.5-0.3,12.4,1.7,15,15.1c3.8-8.2-4.1-22.8-19.4-35.3
		c6.6-1.8,11.3,0.3,15.5,5.4c8.5,10.6,11.4,23,11.8,36.2c0.4,13.8-5.7,25.3-11.2,37.6c-7,15.7-18.6,11.4-29.9,11.4
		c-2.7,0-5.6,0.2-8.1-0.6c-4-1.3-8.7-2.3-11.4-5.1c-10.2-10.5-15-23.7-16.7-38.1c-0.2-1.8-1.2-3.6-1.8-5.3c-0.4-1.1-1.1-2.4-0.8-3.2
		c3.9-11,7.9-21.9,12.1-32.8C315.9,1.8,319.5-0.7,324.8,0.9L324.8,0.9z M347.9,85.9c12.4-1.4,15.2-4.6,14.6-17.4
		c-0.5-11.5-1.6-23.1,4.1-33.9c0.8-1.5,0.2-4.6-0.9-5.8c-1.1-1.1-4.3-1.6-5.8-0.9c-4.3,2.2-5.6,0.1-6.9-3.4
		c-1.1-2.9-2.8-5.5-4.5-8.6c-6.8,6.9-13.3,5.8-19,1.5c-3,2-5.8,3.2-7.6,5.3c-4.2,5-10.4,10.2-11.2,15.9c-2.1,14.7,3,28.3,11.9,40.2
		c6.4,8.6,13,8.7,20.7,0.1c-3.5,0-6.7-0.1-9.8,0c-6.3,0.3-12.4-3.9-12.8-9.2c-0.1-1.4,0.3-3.5,1.3-4.2c0.8-0.6,2.9,0.1,4.2,0.7
		c2.5,1.3,4.6,3.3,7.1,4.4c1.2,0.5,2.9-0.2,4.4-0.4c-9.7-5.2-11.4-9.4-7.7-20.2c-1.4-0.7-2.8-1.3-4.1-2.2c-5.6-3.9,0.4-7.7,0.5-11.5
		c0-1.1,2.7-3,4.2-3c5.8,0,11.5,0.7,17.3,1c4.9,0.3,7.1,3.3,7.5,7.7c0.4,4.7-2.5,7.5-6.8,8.5c-2.9,0.7-6.1,0-8.8,0.8
		c-2,0.6-4.4,2.5-5,4.4c-0.6,1.8,0.8,4.3,1.4,6.8c2.2-3.2,3.5-5.1,4.9-7.1c1.3,2.4,3.4,4.6,3.8,7.2c0.5,3-0.3,6.2-0.5,9.3
		c2.5-1.3,4-3.3,5.6-5.3c1.2-1.5,2.5-2.8,3.7-4.2c0.7,1.8,2.5,4,2,5.4C353.4,74.1,350.5,80.1,347.9,85.9L347.9,85.9z M344.2,46.7
		c1.6-6.6-1.2-7.5-4.7-7c-1.2,0.2-2.2,1.8-3.3,2.7C338.6,43.8,341,45.1,344.2,46.7L344.2,46.7z"/>
</g>
</svg>
